%TF.GenerationSoftware,KiCad,Pcbnew,(6.0.1-0)*%
%TF.CreationDate,2022-02-13T19:33:32+01:00*%
%TF.ProjectId,UV_LED,55565f4c-4544-42e6-9b69-6361645f7063,V1.0*%
%TF.SameCoordinates,Original*%
%TF.FileFunction,Soldermask,Top*%
%TF.FilePolarity,Negative*%
%FSLAX46Y46*%
G04 Gerber Fmt 4.6, Leading zero omitted, Abs format (unit mm)*
G04 Created by KiCad (PCBNEW (6.0.1-0)) date 2022-02-13 19:33:32*
%MOMM*%
%LPD*%
G01*
G04 APERTURE LIST*
G04 Aperture macros list*
%AMRoundRect*
0 Rectangle with rounded corners*
0 $1 Rounding radius*
0 $2 $3 $4 $5 $6 $7 $8 $9 X,Y pos of 4 corners*
0 Add a 4 corners polygon primitive as box body*
4,1,4,$2,$3,$4,$5,$6,$7,$8,$9,$2,$3,0*
0 Add four circle primitives for the rounded corners*
1,1,$1+$1,$2,$3*
1,1,$1+$1,$4,$5*
1,1,$1+$1,$6,$7*
1,1,$1+$1,$8,$9*
0 Add four rect primitives between the rounded corners*
20,1,$1+$1,$2,$3,$4,$5,0*
20,1,$1+$1,$4,$5,$6,$7,0*
20,1,$1+$1,$6,$7,$8,$9,0*
20,1,$1+$1,$8,$9,$2,$3,0*%
G04 Aperture macros list end*
%ADD10C,3.200000*%
%ADD11R,3.500000X2.700000*%
%ADD12C,5.700000*%
%ADD13RoundRect,0.250000X0.625000X-0.312500X0.625000X0.312500X-0.625000X0.312500X-0.625000X-0.312500X0*%
%ADD14RoundRect,0.250000X-0.312500X-0.625000X0.312500X-0.625000X0.312500X0.625000X-0.312500X0.625000X0*%
%ADD15RoundRect,0.150000X0.150000X-0.650000X0.150000X0.650000X-0.150000X0.650000X-0.150000X-0.650000X0*%
%ADD16R,3.100000X2.410000*%
%ADD17RoundRect,0.150000X-0.150000X0.587500X-0.150000X-0.587500X0.150000X-0.587500X0.150000X0.587500X0*%
%ADD18R,2.500000X1.800000*%
%ADD19R,1.700000X1.700000*%
%ADD20O,1.700000X1.700000*%
%ADD21RoundRect,0.250000X0.325000X0.650000X-0.325000X0.650000X-0.325000X-0.650000X0.325000X-0.650000X0*%
%ADD22RoundRect,0.250000X0.312500X0.625000X-0.312500X0.625000X-0.312500X-0.625000X0.312500X-0.625000X0*%
%ADD23RoundRect,0.250000X0.650000X-0.325000X0.650000X0.325000X-0.650000X0.325000X-0.650000X-0.325000X0*%
G04 APERTURE END LIST*
D10*
%TO.C,H9*%
X353360000Y-106045000D03*
%TD*%
%TO.C,H8*%
X283360000Y-106045000D03*
%TD*%
%TO.C,H7*%
X213360000Y-106045000D03*
%TD*%
%TO.C,H6*%
X143360000Y-106045000D03*
%TD*%
%TO.C,H5*%
X73360000Y-106045000D03*
%TD*%
%TO.C,H4*%
X317015000Y-118745000D03*
%TD*%
%TO.C,H3*%
X247015000Y-118745000D03*
%TD*%
%TO.C,H2*%
X177015000Y-118745000D03*
%TD*%
%TO.C,H1*%
X107015000Y-118745000D03*
%TD*%
D11*
%TO.C,D10*%
X254081000Y-106790000D03*
X241381000Y-109490000D03*
D12*
X247731000Y-108140000D03*
%TD*%
D11*
%TO.C,D5*%
X359075000Y-115744000D03*
X346375000Y-118444000D03*
D12*
X352725000Y-117094000D03*
%TD*%
D13*
%TO.C,R3*%
X377190000Y-110047500D03*
X377190000Y-107122500D03*
%TD*%
D14*
%TO.C,R2*%
X372614000Y-122428000D03*
X375539000Y-122428000D03*
%TD*%
D11*
%TO.C,D11*%
X324081000Y-106790000D03*
X311381000Y-109490000D03*
D12*
X317731000Y-108140000D03*
%TD*%
D11*
%TO.C,D1*%
X79075000Y-115744000D03*
X66375000Y-118444000D03*
D12*
X72725000Y-117094000D03*
%TD*%
D15*
%TO.C,IC1*%
X369824000Y-111362000D03*
X371094000Y-111362000D03*
X372364000Y-111362000D03*
X373634000Y-111362000D03*
X373634000Y-106062000D03*
X372364000Y-106062000D03*
X371094000Y-106062000D03*
X369824000Y-106062000D03*
D16*
X371729000Y-108712000D03*
%TD*%
D11*
%TO.C,D4*%
X289075000Y-115744000D03*
X276375000Y-118444000D03*
D12*
X282725000Y-117094000D03*
%TD*%
D17*
%TO.C,Q2*%
X375219000Y-117172500D03*
X373319000Y-117172500D03*
X374269000Y-119047500D03*
%TD*%
D18*
%TO.C,D14*%
X44355000Y-116840000D03*
X48355000Y-116840000D03*
%TD*%
D11*
%TO.C,D8*%
X114081000Y-106790000D03*
X101381000Y-109490000D03*
D12*
X107731000Y-108140000D03*
%TD*%
D19*
%TO.C,J2*%
X395580000Y-123180000D03*
D20*
X395580000Y-120640000D03*
X395580000Y-118100000D03*
X395580000Y-115560000D03*
%TD*%
D21*
%TO.C,C3*%
X389460000Y-123190000D03*
X386510000Y-123190000D03*
%TD*%
D11*
%TO.C,D12*%
X394081000Y-106790000D03*
X381381000Y-109490000D03*
D12*
X387731000Y-108140000D03*
%TD*%
D11*
%TO.C,D7*%
X44081000Y-106790000D03*
X31381000Y-109490000D03*
D12*
X37731000Y-108140000D03*
%TD*%
D20*
%TO.C,J1*%
X31115000Y-115560000D03*
X31115000Y-118100000D03*
X31115000Y-120640000D03*
D19*
X31115000Y-123180000D03*
%TD*%
D17*
%TO.C,Q1*%
X369885000Y-117172500D03*
X367985000Y-117172500D03*
X368935000Y-119047500D03*
%TD*%
D11*
%TO.C,D2*%
X149075000Y-115744000D03*
X136375000Y-118444000D03*
D12*
X142725000Y-117094000D03*
%TD*%
D11*
%TO.C,D3*%
X219075000Y-115744000D03*
X206375000Y-118444000D03*
D12*
X212725000Y-117094000D03*
%TD*%
D22*
%TO.C,R1*%
X370397500Y-122428000D03*
X367472500Y-122428000D03*
%TD*%
D23*
%TO.C,C1*%
X365125000Y-110060000D03*
X365125000Y-107110000D03*
%TD*%
%TO.C,C2*%
X36195000Y-120855000D03*
X36195000Y-117905000D03*
%TD*%
D18*
%TO.C,D15*%
X57245000Y-116840000D03*
X53245000Y-116840000D03*
%TD*%
D11*
%TO.C,D9*%
X184081000Y-106790000D03*
X171381000Y-109490000D03*
D12*
X177731000Y-108140000D03*
%TD*%
M02*
