M48
; DRILL file {KiCad (6.0.1-0)} date Monday, 14 February 2022 at 10:28:27
; FORMAT={-:-/ absolute / metric / decimal}
; #@! TF.CreationDate,2022-02-14T10:28:27+01:00
; #@! TF.GenerationSoftware,Kicad,Pcbnew,(6.0.1-0)
; #@! TF.FileFunction,Plated,1,2,PTH
FMAT,2
METRIC
; #@! TA.AperFunction,Plated,PTH,ViaDrill
T1C0.400
; #@! TA.AperFunction,Plated,PTH,ComponentDrill
T2C1.000
%
G90
G05
T1
X84.455Y-106.68
X84.455Y-107.95
X84.455Y-111.76
X84.455Y-113.03
X84.455Y-118.11
X84.455Y-119.38
X85.725Y-106.68
X85.725Y-107.95
X85.725Y-111.76
X85.725Y-113.03
X85.725Y-118.11
X85.725Y-119.38
X132.08Y-113.03
X132.08Y-114.3
X133.35Y-113.03
X133.35Y-114.3
X134.62Y-113.03
X134.62Y-114.3
X135.89Y-113.03
X135.89Y-114.3
X137.16Y-120.65
X139.429Y-117.172
X139.7Y-113.03
X139.7Y-114.3
X139.7Y-124.93
X140.97Y-113.03
X140.97Y-114.3
X141.986Y-111.506
X142.24Y-113.03
X142.24Y-114.3
X143.51Y-113.03
X143.51Y-114.3
X148.59Y-114.3
X149.86Y-113.03
X149.86Y-114.3
X151.13Y-113.03
X151.13Y-114.3
X152.4Y-113.03
X152.4Y-114.3
T2
X31.115Y-115.56
X31.115Y-118.1
X31.115Y-120.64
X31.115Y-123.18
X165.075Y-115.56
X165.075Y-118.1
X165.075Y-120.64
X165.075Y-123.18
T0
M30
