M48
; DRILL file {KiCad (6.0.1-0)} date Sunday, 13 February 2022 at 19:33:37
; FORMAT={-:-/ absolute / metric / decimal}
; #@! TF.CreationDate,2022-02-13T19:33:37+01:00
; #@! TF.GenerationSoftware,Kicad,Pcbnew,(6.0.1-0)
; #@! TF.FileFunction,Plated,1,2,PTH
FMAT,2
METRIC
; #@! TA.AperFunction,Plated,PTH,ViaDrill
T1C0.400
; #@! TA.AperFunction,Plated,PTH,ComponentDrill
T2C1.000
%
G90
G05
T1
X84.455Y-106.68
X84.455Y-107.95
X84.455Y-111.76
X84.455Y-113.03
X84.455Y-118.11
X84.455Y-119.38
X85.725Y-106.68
X85.725Y-107.95
X85.725Y-111.76
X85.725Y-113.03
X85.725Y-118.11
X85.725Y-119.38
X156.845Y-106.68
X156.845Y-107.95
X156.845Y-111.76
X156.845Y-113.03
X156.845Y-118.11
X156.845Y-119.38
X158.115Y-106.68
X158.115Y-107.95
X158.115Y-111.76
X158.115Y-113.03
X158.115Y-118.11
X158.115Y-119.38
X296.545Y-106.68
X296.545Y-107.95
X296.545Y-111.76
X296.545Y-113.03
X296.545Y-118.11
X296.545Y-119.38
X297.815Y-106.68
X297.815Y-107.95
X297.815Y-111.76
X297.815Y-113.03
X297.815Y-118.11
X297.815Y-119.38
X362.585Y-113.03
X362.585Y-114.3
X363.855Y-113.03
X363.855Y-114.3
X365.125Y-113.03
X365.125Y-114.3
X366.395Y-113.03
X366.395Y-114.3
X367.665Y-120.65
X369.934Y-117.172
X370.205Y-113.03
X370.205Y-114.3
X370.205Y-124.93
X371.475Y-113.03
X371.475Y-114.3
X372.491Y-111.506
X372.745Y-113.03
X372.745Y-114.3
X374.015Y-113.03
X374.015Y-114.3
X379.095Y-114.3
X380.365Y-113.03
X380.365Y-114.3
X381.635Y-113.03
X381.635Y-114.3
X382.905Y-113.03
X382.905Y-114.3
T2
X31.115Y-115.56
X31.115Y-118.1
X31.115Y-120.64
X31.115Y-123.18
X395.58Y-115.56
X395.58Y-118.1
X395.58Y-120.64
X395.58Y-123.18
T0
M30
