%TF.GenerationSoftware,KiCad,Pcbnew,(6.0.1-0)*%
%TF.CreationDate,2022-02-14T10:28:33+01:00*%
%TF.ProjectId,UV_LED_stencil,55565f4c-4544-45f7-9374-656e63696c2e,V1.0*%
%TF.SameCoordinates,Original*%
%TF.FileFunction,Paste,Top*%
%TF.FilePolarity,Positive*%
%FSLAX46Y46*%
G04 Gerber Fmt 4.6, Leading zero omitted, Abs format (unit mm)*
G04 Created by KiCad (PCBNEW (6.0.1-0)) date 2022-02-14 10:28:33*
%MOMM*%
%LPD*%
G01*
G04 APERTURE LIST*
G04 Aperture macros list*
%AMRoundRect*
0 Rectangle with rounded corners*
0 $1 Rounding radius*
0 $2 $3 $4 $5 $6 $7 $8 $9 X,Y pos of 4 corners*
0 Add a 4 corners polygon primitive as box body*
4,1,4,$2,$3,$4,$5,$6,$7,$8,$9,$2,$3,0*
0 Add four circle primitives for the rounded corners*
1,1,$1+$1,$2,$3*
1,1,$1+$1,$4,$5*
1,1,$1+$1,$6,$7*
1,1,$1+$1,$8,$9*
0 Add four rect primitives between the rounded corners*
20,1,$1+$1,$2,$3,$4,$5,0*
20,1,$1+$1,$4,$5,$6,$7,0*
20,1,$1+$1,$6,$7,$8,$9,0*
20,1,$1+$1,$8,$9,$2,$3,0*%
G04 Aperture macros list end*
%ADD10R,3.500000X2.700000*%
%ADD11C,5.700000*%
%ADD12RoundRect,0.250000X0.625000X-0.312500X0.625000X0.312500X-0.625000X0.312500X-0.625000X-0.312500X0*%
%ADD13RoundRect,0.250000X-0.312500X-0.625000X0.312500X-0.625000X0.312500X0.625000X-0.312500X0.625000X0*%
%ADD14RoundRect,0.242500X0.382500X-0.242500X0.382500X0.242500X-0.382500X0.242500X-0.382500X-0.242500X0*%
%ADD15RoundRect,0.150000X0.150000X-0.650000X0.150000X0.650000X-0.150000X0.650000X-0.150000X-0.650000X0*%
%ADD16RoundRect,0.150000X-0.150000X0.587500X-0.150000X-0.587500X0.150000X-0.587500X0.150000X0.587500X0*%
%ADD17R,2.500000X1.800000*%
%ADD18RoundRect,0.250000X0.325000X0.650000X-0.325000X0.650000X-0.325000X-0.650000X0.325000X-0.650000X0*%
%ADD19RoundRect,0.250000X0.312500X0.625000X-0.312500X0.625000X-0.312500X-0.625000X0.312500X-0.625000X0*%
%ADD20RoundRect,0.250000X0.650000X-0.325000X0.650000X0.325000X-0.650000X0.325000X-0.650000X-0.325000X0*%
G04 APERTURE END LIST*
D10*
%TO.C,D5*%
X128570000Y-115744000D03*
X115870000Y-118444000D03*
D11*
X122220000Y-117094000D03*
%TD*%
D12*
%TO.C,R3*%
X146685000Y-110047500D03*
X146685000Y-107122500D03*
%TD*%
D13*
%TO.C,R2*%
X142109000Y-122428000D03*
X145034000Y-122428000D03*
%TD*%
D10*
%TO.C,D1*%
X79075000Y-115744000D03*
X66375000Y-118444000D03*
D11*
X72725000Y-117094000D03*
%TD*%
D14*
%TO.C,IC1*%
X140449000Y-108112000D03*
X141999000Y-108112000D03*
X140449000Y-109312000D03*
X141999000Y-109312000D03*
D15*
X139319000Y-111362000D03*
X140589000Y-111362000D03*
X141859000Y-111362000D03*
X143129000Y-111362000D03*
X143129000Y-106062000D03*
X141859000Y-106062000D03*
X140589000Y-106062000D03*
X139319000Y-106062000D03*
%TD*%
D16*
%TO.C,Q2*%
X144714000Y-117172500D03*
X142814000Y-117172500D03*
X143764000Y-119047500D03*
%TD*%
D17*
%TO.C,D14*%
X44355000Y-116840000D03*
X48355000Y-116840000D03*
%TD*%
D10*
%TO.C,D8*%
X114081000Y-106790000D03*
X101381000Y-109490000D03*
D11*
X107731000Y-108140000D03*
%TD*%
D18*
%TO.C,C3*%
X158955000Y-123190000D03*
X156005000Y-123190000D03*
%TD*%
D10*
%TO.C,D12*%
X163576000Y-106790000D03*
X150876000Y-109490000D03*
D11*
X157226000Y-108140000D03*
%TD*%
D10*
%TO.C,D7*%
X44081000Y-106790000D03*
X31381000Y-109490000D03*
D11*
X37731000Y-108140000D03*
%TD*%
D16*
%TO.C,Q1*%
X139380000Y-117172500D03*
X137480000Y-117172500D03*
X138430000Y-119047500D03*
%TD*%
D19*
%TO.C,R1*%
X139892500Y-122428000D03*
X136967500Y-122428000D03*
%TD*%
D20*
%TO.C,C1*%
X134620000Y-110060000D03*
X134620000Y-107110000D03*
%TD*%
%TO.C,C2*%
X36195000Y-120855000D03*
X36195000Y-117905000D03*
%TD*%
D17*
%TO.C,D15*%
X57245000Y-116840000D03*
X53245000Y-116840000D03*
%TD*%
M02*
