%TF.GenerationSoftware,KiCad,Pcbnew,(6.0.1-0)*%
%TF.CreationDate,2022-02-14T10:28:33+01:00*%
%TF.ProjectId,UV_LED_stencil,55565f4c-4544-45f7-9374-656e63696c2e,V1.0*%
%TF.SameCoordinates,Original*%
%TF.FileFunction,Legend,Top*%
%TF.FilePolarity,Positive*%
%FSLAX46Y46*%
G04 Gerber Fmt 4.6, Leading zero omitted, Abs format (unit mm)*
G04 Created by KiCad (PCBNEW (6.0.1-0)) date 2022-02-14 10:28:33*
%MOMM*%
%LPD*%
G01*
G04 APERTURE LIST*
%ADD10C,0.150000*%
%ADD11C,0.120000*%
G04 APERTURE END LIST*
D10*
X33305000Y-116103333D02*
X33271666Y-116170000D01*
X33271666Y-116270000D01*
X33305000Y-116370000D01*
X33371666Y-116436666D01*
X33438333Y-116470000D01*
X33571666Y-116503333D01*
X33671666Y-116503333D01*
X33805000Y-116470000D01*
X33871666Y-116436666D01*
X33938333Y-116370000D01*
X33971666Y-116270000D01*
X33971666Y-116203333D01*
X33938333Y-116103333D01*
X33905000Y-116070000D01*
X33671666Y-116070000D01*
X33671666Y-116203333D01*
X33971666Y-115770000D02*
X33271666Y-115770000D01*
X33971666Y-115370000D01*
X33271666Y-115370000D01*
X33971666Y-115036666D02*
X33271666Y-115036666D01*
X33271666Y-114870000D01*
X33305000Y-114770000D01*
X33371666Y-114703333D01*
X33438333Y-114670000D01*
X33571666Y-114636666D01*
X33671666Y-114636666D01*
X33805000Y-114670000D01*
X33871666Y-114703333D01*
X33938333Y-114770000D01*
X33971666Y-114870000D01*
X33971666Y-115036666D01*
X33271666Y-121566666D02*
X33271666Y-121166666D01*
X33971666Y-121366666D02*
X33271666Y-121366666D01*
X33271666Y-120800000D02*
X33271666Y-120666666D01*
X33305000Y-120600000D01*
X33371666Y-120533333D01*
X33505000Y-120500000D01*
X33738333Y-120500000D01*
X33871666Y-120533333D01*
X33938333Y-120600000D01*
X33971666Y-120666666D01*
X33971666Y-120800000D01*
X33938333Y-120866666D01*
X33871666Y-120933333D01*
X33738333Y-120966666D01*
X33505000Y-120966666D01*
X33371666Y-120933333D01*
X33305000Y-120866666D01*
X33271666Y-120800000D01*
X33305000Y-119833333D02*
X33271666Y-119900000D01*
X33271666Y-120000000D01*
X33305000Y-120100000D01*
X33371666Y-120166666D01*
X33438333Y-120200000D01*
X33571666Y-120233333D01*
X33671666Y-120233333D01*
X33805000Y-120200000D01*
X33871666Y-120166666D01*
X33938333Y-120100000D01*
X33971666Y-120000000D01*
X33971666Y-119933333D01*
X33938333Y-119833333D01*
X33905000Y-119800000D01*
X33671666Y-119800000D01*
X33671666Y-119933333D01*
X33271666Y-123856666D02*
X33971666Y-123623333D01*
X33271666Y-123390000D01*
X33705000Y-123156666D02*
X33705000Y-122623333D01*
X33971666Y-122890000D02*
X33438333Y-122890000D01*
X162176666Y-121566666D02*
X162176666Y-121166666D01*
X162876666Y-121366666D02*
X162176666Y-121366666D01*
X162176666Y-120800000D02*
X162176666Y-120666666D01*
X162210000Y-120600000D01*
X162276666Y-120533333D01*
X162410000Y-120500000D01*
X162643333Y-120500000D01*
X162776666Y-120533333D01*
X162843333Y-120600000D01*
X162876666Y-120666666D01*
X162876666Y-120800000D01*
X162843333Y-120866666D01*
X162776666Y-120933333D01*
X162643333Y-120966666D01*
X162410000Y-120966666D01*
X162276666Y-120933333D01*
X162210000Y-120866666D01*
X162176666Y-120800000D01*
X162210000Y-119833333D02*
X162176666Y-119900000D01*
X162176666Y-120000000D01*
X162210000Y-120100000D01*
X162276666Y-120166666D01*
X162343333Y-120200000D01*
X162476666Y-120233333D01*
X162576666Y-120233333D01*
X162710000Y-120200000D01*
X162776666Y-120166666D01*
X162843333Y-120100000D01*
X162876666Y-120000000D01*
X162876666Y-119933333D01*
X162843333Y-119833333D01*
X162810000Y-119800000D01*
X162576666Y-119800000D01*
X162576666Y-119933333D01*
X162876666Y-119093333D02*
X162176666Y-119093333D01*
X162176666Y-118826666D01*
X162210000Y-118760000D01*
X162243333Y-118726666D01*
X162310000Y-118693333D01*
X162410000Y-118693333D01*
X162476666Y-118726666D01*
X162510000Y-118760000D01*
X162543333Y-118826666D01*
X162543333Y-119093333D01*
X162176666Y-118460000D02*
X162876666Y-118293333D01*
X162376666Y-118160000D01*
X162876666Y-118026666D01*
X162176666Y-117860000D01*
X162876666Y-117593333D02*
X162176666Y-117593333D01*
X162676666Y-117360000D01*
X162176666Y-117126666D01*
X162876666Y-117126666D01*
X162210000Y-116103333D02*
X162176666Y-116170000D01*
X162176666Y-116270000D01*
X162210000Y-116370000D01*
X162276666Y-116436666D01*
X162343333Y-116470000D01*
X162476666Y-116503333D01*
X162576666Y-116503333D01*
X162710000Y-116470000D01*
X162776666Y-116436666D01*
X162843333Y-116370000D01*
X162876666Y-116270000D01*
X162876666Y-116203333D01*
X162843333Y-116103333D01*
X162810000Y-116070000D01*
X162576666Y-116070000D01*
X162576666Y-116203333D01*
X162876666Y-115770000D02*
X162176666Y-115770000D01*
X162876666Y-115370000D01*
X162176666Y-115370000D01*
X162876666Y-115036666D02*
X162176666Y-115036666D01*
X162176666Y-114870000D01*
X162210000Y-114770000D01*
X162276666Y-114703333D01*
X162343333Y-114670000D01*
X162476666Y-114636666D01*
X162576666Y-114636666D01*
X162710000Y-114670000D01*
X162776666Y-114703333D01*
X162843333Y-114770000D01*
X162876666Y-114870000D01*
X162876666Y-115036666D01*
X162176666Y-123856666D02*
X162876666Y-123623333D01*
X162176666Y-123390000D01*
X162610000Y-123156666D02*
X162610000Y-122623333D01*
X162876666Y-122890000D02*
X162343333Y-122890000D01*
X33971666Y-119093333D02*
X33271666Y-119093333D01*
X33271666Y-118826666D01*
X33305000Y-118760000D01*
X33338333Y-118726666D01*
X33405000Y-118693333D01*
X33505000Y-118693333D01*
X33571666Y-118726666D01*
X33605000Y-118760000D01*
X33638333Y-118826666D01*
X33638333Y-119093333D01*
X33271666Y-118460000D02*
X33971666Y-118293333D01*
X33471666Y-118160000D01*
X33971666Y-118026666D01*
X33271666Y-117860000D01*
X33971666Y-117593333D02*
X33271666Y-117593333D01*
X33771666Y-117360000D01*
X33271666Y-117126666D01*
X33971666Y-117126666D01*
X45245238Y-124547380D02*
X45245238Y-125356904D01*
X45292857Y-125452142D01*
X45340476Y-125499761D01*
X45435714Y-125547380D01*
X45626190Y-125547380D01*
X45721428Y-125499761D01*
X45769047Y-125452142D01*
X45816666Y-125356904D01*
X45816666Y-124547380D01*
X46150000Y-124547380D02*
X46483333Y-125547380D01*
X46816666Y-124547380D01*
X46911904Y-125642619D02*
X47673809Y-125642619D01*
X47911904Y-125023571D02*
X48245238Y-125023571D01*
X48388095Y-125547380D02*
X47911904Y-125547380D01*
X47911904Y-124547380D01*
X48388095Y-124547380D01*
X48721428Y-124547380D02*
X49388095Y-125547380D01*
X49388095Y-124547380D02*
X48721428Y-125547380D01*
X49769047Y-125547380D02*
X49769047Y-124547380D01*
X50150000Y-124547380D01*
X50245238Y-124595000D01*
X50292857Y-124642619D01*
X50340476Y-124737857D01*
X50340476Y-124880714D01*
X50292857Y-124975952D01*
X50245238Y-125023571D01*
X50150000Y-125071190D01*
X49769047Y-125071190D01*
X50959523Y-124547380D02*
X51150000Y-124547380D01*
X51245238Y-124595000D01*
X51340476Y-124690238D01*
X51388095Y-124880714D01*
X51388095Y-125214047D01*
X51340476Y-125404523D01*
X51245238Y-125499761D01*
X51150000Y-125547380D01*
X50959523Y-125547380D01*
X50864285Y-125499761D01*
X50769047Y-125404523D01*
X50721428Y-125214047D01*
X50721428Y-124880714D01*
X50769047Y-124690238D01*
X50864285Y-124595000D01*
X50959523Y-124547380D01*
X51769047Y-125499761D02*
X51911904Y-125547380D01*
X52150000Y-125547380D01*
X52245238Y-125499761D01*
X52292857Y-125452142D01*
X52340476Y-125356904D01*
X52340476Y-125261666D01*
X52292857Y-125166428D01*
X52245238Y-125118809D01*
X52150000Y-125071190D01*
X51959523Y-125023571D01*
X51864285Y-124975952D01*
X51816666Y-124928333D01*
X51769047Y-124833095D01*
X51769047Y-124737857D01*
X51816666Y-124642619D01*
X51864285Y-124595000D01*
X51959523Y-124547380D01*
X52197619Y-124547380D01*
X52340476Y-124595000D01*
X52769047Y-125023571D02*
X53102380Y-125023571D01*
X53245238Y-125547380D02*
X52769047Y-125547380D01*
X52769047Y-124547380D01*
X53245238Y-124547380D01*
X54245238Y-125547380D02*
X53911904Y-125071190D01*
X53673809Y-125547380D02*
X53673809Y-124547380D01*
X54054761Y-124547380D01*
X54150000Y-124595000D01*
X54197619Y-124642619D01*
X54245238Y-124737857D01*
X54245238Y-124880714D01*
X54197619Y-124975952D01*
X54150000Y-125023571D01*
X54054761Y-125071190D01*
X53673809Y-125071190D01*
X55292857Y-124547380D02*
X55626190Y-125547380D01*
X55959523Y-124547380D01*
X56816666Y-125547380D02*
X56245238Y-125547380D01*
X56530952Y-125547380D02*
X56530952Y-124547380D01*
X56435714Y-124690238D01*
X56340476Y-124785476D01*
X56245238Y-124833095D01*
X57245238Y-125452142D02*
X57292857Y-125499761D01*
X57245238Y-125547380D01*
X57197619Y-125499761D01*
X57245238Y-125452142D01*
X57245238Y-125547380D01*
X57911904Y-124547380D02*
X58007142Y-124547380D01*
X58102380Y-124595000D01*
X58150000Y-124642619D01*
X58197619Y-124737857D01*
X58245238Y-124928333D01*
X58245238Y-125166428D01*
X58197619Y-125356904D01*
X58150000Y-125452142D01*
X58102380Y-125499761D01*
X58007142Y-125547380D01*
X57911904Y-125547380D01*
X57816666Y-125499761D01*
X57769047Y-125452142D01*
X57721428Y-125356904D01*
X57673809Y-125166428D01*
X57673809Y-124928333D01*
X57721428Y-124737857D01*
X57769047Y-124642619D01*
X57816666Y-124595000D01*
X57911904Y-124547380D01*
X59388095Y-124642619D02*
X59435714Y-124595000D01*
X59530952Y-124547380D01*
X59769047Y-124547380D01*
X59864285Y-124595000D01*
X59911904Y-124642619D01*
X59959523Y-124737857D01*
X59959523Y-124833095D01*
X59911904Y-124975952D01*
X59340476Y-125547380D01*
X59959523Y-125547380D01*
X60578571Y-124547380D02*
X60673809Y-124547380D01*
X60769047Y-124595000D01*
X60816666Y-124642619D01*
X60864285Y-124737857D01*
X60911904Y-124928333D01*
X60911904Y-125166428D01*
X60864285Y-125356904D01*
X60816666Y-125452142D01*
X60769047Y-125499761D01*
X60673809Y-125547380D01*
X60578571Y-125547380D01*
X60483333Y-125499761D01*
X60435714Y-125452142D01*
X60388095Y-125356904D01*
X60340476Y-125166428D01*
X60340476Y-124928333D01*
X60388095Y-124737857D01*
X60435714Y-124642619D01*
X60483333Y-124595000D01*
X60578571Y-124547380D01*
X61292857Y-124642619D02*
X61340476Y-124595000D01*
X61435714Y-124547380D01*
X61673809Y-124547380D01*
X61769047Y-124595000D01*
X61816666Y-124642619D01*
X61864285Y-124737857D01*
X61864285Y-124833095D01*
X61816666Y-124975952D01*
X61245238Y-125547380D01*
X61864285Y-125547380D01*
X62245238Y-124642619D02*
X62292857Y-124595000D01*
X62388095Y-124547380D01*
X62626190Y-124547380D01*
X62721428Y-124595000D01*
X62769047Y-124642619D01*
X62816666Y-124737857D01*
X62816666Y-124833095D01*
X62769047Y-124975952D01*
X62197619Y-125547380D01*
X62816666Y-125547380D01*
X63245238Y-125166428D02*
X64007142Y-125166428D01*
X64673809Y-124547380D02*
X64769047Y-124547380D01*
X64864285Y-124595000D01*
X64911904Y-124642619D01*
X64959523Y-124737857D01*
X65007142Y-124928333D01*
X65007142Y-125166428D01*
X64959523Y-125356904D01*
X64911904Y-125452142D01*
X64864285Y-125499761D01*
X64769047Y-125547380D01*
X64673809Y-125547380D01*
X64578571Y-125499761D01*
X64530952Y-125452142D01*
X64483333Y-125356904D01*
X64435714Y-125166428D01*
X64435714Y-124928333D01*
X64483333Y-124737857D01*
X64530952Y-124642619D01*
X64578571Y-124595000D01*
X64673809Y-124547380D01*
X65388095Y-124642619D02*
X65435714Y-124595000D01*
X65530952Y-124547380D01*
X65769047Y-124547380D01*
X65864285Y-124595000D01*
X65911904Y-124642619D01*
X65959523Y-124737857D01*
X65959523Y-124833095D01*
X65911904Y-124975952D01*
X65340476Y-125547380D01*
X65959523Y-125547380D01*
X66388095Y-125166428D02*
X67150000Y-125166428D01*
X68150000Y-125547380D02*
X67578571Y-125547380D01*
X67864285Y-125547380D02*
X67864285Y-124547380D01*
X67769047Y-124690238D01*
X67673809Y-124785476D01*
X67578571Y-124833095D01*
X68483333Y-124547380D02*
X69102380Y-124547380D01*
X68769047Y-124928333D01*
X68911904Y-124928333D01*
X69007142Y-124975952D01*
X69054761Y-125023571D01*
X69102380Y-125118809D01*
X69102380Y-125356904D01*
X69054761Y-125452142D01*
X69007142Y-125499761D01*
X68911904Y-125547380D01*
X68626190Y-125547380D01*
X68530952Y-125499761D01*
X68483333Y-125452142D01*
%TO.C,D5*%
X126561904Y-121356380D02*
X126561904Y-120356380D01*
X126800000Y-120356380D01*
X126942857Y-120404000D01*
X127038095Y-120499238D01*
X127085714Y-120594476D01*
X127133333Y-120784952D01*
X127133333Y-120927809D01*
X127085714Y-121118285D01*
X127038095Y-121213523D01*
X126942857Y-121308761D01*
X126800000Y-121356380D01*
X126561904Y-121356380D01*
X128038095Y-120356380D02*
X127561904Y-120356380D01*
X127514285Y-120832571D01*
X127561904Y-120784952D01*
X127657142Y-120737333D01*
X127895238Y-120737333D01*
X127990476Y-120784952D01*
X128038095Y-120832571D01*
X128085714Y-120927809D01*
X128085714Y-121165904D01*
X128038095Y-121261142D01*
X127990476Y-121308761D01*
X127895238Y-121356380D01*
X127657142Y-121356380D01*
X127561904Y-121308761D01*
X127514285Y-121261142D01*
%TO.C,R3*%
X145317380Y-108751666D02*
X144841190Y-109085000D01*
X145317380Y-109323095D02*
X144317380Y-109323095D01*
X144317380Y-108942142D01*
X144365000Y-108846904D01*
X144412619Y-108799285D01*
X144507857Y-108751666D01*
X144650714Y-108751666D01*
X144745952Y-108799285D01*
X144793571Y-108846904D01*
X144841190Y-108942142D01*
X144841190Y-109323095D01*
X144317380Y-108418333D02*
X144317380Y-107799285D01*
X144698333Y-108132619D01*
X144698333Y-107989761D01*
X144745952Y-107894523D01*
X144793571Y-107846904D01*
X144888809Y-107799285D01*
X145126904Y-107799285D01*
X145222142Y-107846904D01*
X145269761Y-107894523D01*
X145317380Y-107989761D01*
X145317380Y-108275476D01*
X145269761Y-108370714D01*
X145222142Y-108418333D01*
%TO.C,R2*%
X143404833Y-124912380D02*
X143071500Y-124436190D01*
X142833404Y-124912380D02*
X142833404Y-123912380D01*
X143214357Y-123912380D01*
X143309595Y-123960000D01*
X143357214Y-124007619D01*
X143404833Y-124102857D01*
X143404833Y-124245714D01*
X143357214Y-124340952D01*
X143309595Y-124388571D01*
X143214357Y-124436190D01*
X142833404Y-124436190D01*
X143785785Y-124007619D02*
X143833404Y-123960000D01*
X143928642Y-123912380D01*
X144166738Y-123912380D01*
X144261976Y-123960000D01*
X144309595Y-124007619D01*
X144357214Y-124102857D01*
X144357214Y-124198095D01*
X144309595Y-124340952D01*
X143738166Y-124912380D01*
X144357214Y-124912380D01*
%TO.C,D1*%
X77066904Y-121356380D02*
X77066904Y-120356380D01*
X77305000Y-120356380D01*
X77447857Y-120404000D01*
X77543095Y-120499238D01*
X77590714Y-120594476D01*
X77638333Y-120784952D01*
X77638333Y-120927809D01*
X77590714Y-121118285D01*
X77543095Y-121213523D01*
X77447857Y-121308761D01*
X77305000Y-121356380D01*
X77066904Y-121356380D01*
X78590714Y-121356380D02*
X78019285Y-121356380D01*
X78305000Y-121356380D02*
X78305000Y-120356380D01*
X78209761Y-120499238D01*
X78114523Y-120594476D01*
X78019285Y-120642095D01*
%TO.C,IC1*%
X138276380Y-109688190D02*
X137276380Y-109688190D01*
X138181142Y-108640571D02*
X138228761Y-108688190D01*
X138276380Y-108831047D01*
X138276380Y-108926285D01*
X138228761Y-109069142D01*
X138133523Y-109164380D01*
X138038285Y-109212000D01*
X137847809Y-109259619D01*
X137704952Y-109259619D01*
X137514476Y-109212000D01*
X137419238Y-109164380D01*
X137324000Y-109069142D01*
X137276380Y-108926285D01*
X137276380Y-108831047D01*
X137324000Y-108688190D01*
X137371619Y-108640571D01*
X138276380Y-107688190D02*
X138276380Y-108259619D01*
X138276380Y-107973904D02*
X137276380Y-107973904D01*
X137419238Y-108069142D01*
X137514476Y-108164380D01*
X137562095Y-108259619D01*
%TO.C,Q2*%
X146711619Y-118205238D02*
X146664000Y-118300476D01*
X146568761Y-118395714D01*
X146425904Y-118538571D01*
X146378285Y-118633809D01*
X146378285Y-118729047D01*
X146616380Y-118681428D02*
X146568761Y-118776666D01*
X146473523Y-118871904D01*
X146283047Y-118919523D01*
X145949714Y-118919523D01*
X145759238Y-118871904D01*
X145664000Y-118776666D01*
X145616380Y-118681428D01*
X145616380Y-118490952D01*
X145664000Y-118395714D01*
X145759238Y-118300476D01*
X145949714Y-118252857D01*
X146283047Y-118252857D01*
X146473523Y-118300476D01*
X146568761Y-118395714D01*
X146616380Y-118490952D01*
X146616380Y-118681428D01*
X145711619Y-117871904D02*
X145664000Y-117824285D01*
X145616380Y-117729047D01*
X145616380Y-117490952D01*
X145664000Y-117395714D01*
X145711619Y-117348095D01*
X145806857Y-117300476D01*
X145902095Y-117300476D01*
X146044952Y-117348095D01*
X146616380Y-117919523D01*
X146616380Y-117300476D01*
%TO.C,D14*%
X45140714Y-119832380D02*
X45140714Y-118832380D01*
X45378809Y-118832380D01*
X45521666Y-118880000D01*
X45616904Y-118975238D01*
X45664523Y-119070476D01*
X45712142Y-119260952D01*
X45712142Y-119403809D01*
X45664523Y-119594285D01*
X45616904Y-119689523D01*
X45521666Y-119784761D01*
X45378809Y-119832380D01*
X45140714Y-119832380D01*
X46664523Y-119832380D02*
X46093095Y-119832380D01*
X46378809Y-119832380D02*
X46378809Y-118832380D01*
X46283571Y-118975238D01*
X46188333Y-119070476D01*
X46093095Y-119118095D01*
X47521666Y-119165714D02*
X47521666Y-119832380D01*
X47283571Y-118784761D02*
X47045476Y-119499047D01*
X47664523Y-119499047D01*
%TO.C,D8*%
X112072904Y-112402380D02*
X112072904Y-111402380D01*
X112311000Y-111402380D01*
X112453857Y-111450000D01*
X112549095Y-111545238D01*
X112596714Y-111640476D01*
X112644333Y-111830952D01*
X112644333Y-111973809D01*
X112596714Y-112164285D01*
X112549095Y-112259523D01*
X112453857Y-112354761D01*
X112311000Y-112402380D01*
X112072904Y-112402380D01*
X113215761Y-111830952D02*
X113120523Y-111783333D01*
X113072904Y-111735714D01*
X113025285Y-111640476D01*
X113025285Y-111592857D01*
X113072904Y-111497619D01*
X113120523Y-111450000D01*
X113215761Y-111402380D01*
X113406238Y-111402380D01*
X113501476Y-111450000D01*
X113549095Y-111497619D01*
X113596714Y-111592857D01*
X113596714Y-111640476D01*
X113549095Y-111735714D01*
X113501476Y-111783333D01*
X113406238Y-111830952D01*
X113215761Y-111830952D01*
X113120523Y-111878571D01*
X113072904Y-111926190D01*
X113025285Y-112021428D01*
X113025285Y-112211904D01*
X113072904Y-112307142D01*
X113120523Y-112354761D01*
X113215761Y-112402380D01*
X113406238Y-112402380D01*
X113501476Y-112354761D01*
X113549095Y-112307142D01*
X113596714Y-112211904D01*
X113596714Y-112021428D01*
X113549095Y-111926190D01*
X113501476Y-111878571D01*
X113406238Y-111830952D01*
%TO.C,C3*%
X157313333Y-125397142D02*
X157265714Y-125444761D01*
X157122857Y-125492380D01*
X157027619Y-125492380D01*
X156884761Y-125444761D01*
X156789523Y-125349523D01*
X156741904Y-125254285D01*
X156694285Y-125063809D01*
X156694285Y-124920952D01*
X156741904Y-124730476D01*
X156789523Y-124635238D01*
X156884761Y-124540000D01*
X157027619Y-124492380D01*
X157122857Y-124492380D01*
X157265714Y-124540000D01*
X157313333Y-124587619D01*
X157646666Y-124492380D02*
X158265714Y-124492380D01*
X157932380Y-124873333D01*
X158075238Y-124873333D01*
X158170476Y-124920952D01*
X158218095Y-124968571D01*
X158265714Y-125063809D01*
X158265714Y-125301904D01*
X158218095Y-125397142D01*
X158170476Y-125444761D01*
X158075238Y-125492380D01*
X157789523Y-125492380D01*
X157694285Y-125444761D01*
X157646666Y-125397142D01*
%TO.C,D12*%
X161091714Y-112402380D02*
X161091714Y-111402380D01*
X161329809Y-111402380D01*
X161472666Y-111450000D01*
X161567904Y-111545238D01*
X161615523Y-111640476D01*
X161663142Y-111830952D01*
X161663142Y-111973809D01*
X161615523Y-112164285D01*
X161567904Y-112259523D01*
X161472666Y-112354761D01*
X161329809Y-112402380D01*
X161091714Y-112402380D01*
X162615523Y-112402380D02*
X162044095Y-112402380D01*
X162329809Y-112402380D02*
X162329809Y-111402380D01*
X162234571Y-111545238D01*
X162139333Y-111640476D01*
X162044095Y-111688095D01*
X162996476Y-111497619D02*
X163044095Y-111450000D01*
X163139333Y-111402380D01*
X163377428Y-111402380D01*
X163472666Y-111450000D01*
X163520285Y-111497619D01*
X163567904Y-111592857D01*
X163567904Y-111688095D01*
X163520285Y-111830952D01*
X162948857Y-112402380D01*
X163567904Y-112402380D01*
%TO.C,D7*%
X42072904Y-112402380D02*
X42072904Y-111402380D01*
X42311000Y-111402380D01*
X42453857Y-111450000D01*
X42549095Y-111545238D01*
X42596714Y-111640476D01*
X42644333Y-111830952D01*
X42644333Y-111973809D01*
X42596714Y-112164285D01*
X42549095Y-112259523D01*
X42453857Y-112354761D01*
X42311000Y-112402380D01*
X42072904Y-112402380D01*
X42977666Y-111402380D02*
X43644333Y-111402380D01*
X43215761Y-112402380D01*
%TO.C,Q1*%
X141517619Y-118205238D02*
X141470000Y-118300476D01*
X141374761Y-118395714D01*
X141231904Y-118538571D01*
X141184285Y-118633809D01*
X141184285Y-118729047D01*
X141422380Y-118681428D02*
X141374761Y-118776666D01*
X141279523Y-118871904D01*
X141089047Y-118919523D01*
X140755714Y-118919523D01*
X140565238Y-118871904D01*
X140470000Y-118776666D01*
X140422380Y-118681428D01*
X140422380Y-118490952D01*
X140470000Y-118395714D01*
X140565238Y-118300476D01*
X140755714Y-118252857D01*
X141089047Y-118252857D01*
X141279523Y-118300476D01*
X141374761Y-118395714D01*
X141422380Y-118490952D01*
X141422380Y-118681428D01*
X141422380Y-117300476D02*
X141422380Y-117871904D01*
X141422380Y-117586190D02*
X140422380Y-117586190D01*
X140565238Y-117681428D01*
X140660476Y-117776666D01*
X140708095Y-117871904D01*
%TO.C,R1*%
X138263333Y-124912380D02*
X137930000Y-124436190D01*
X137691904Y-124912380D02*
X137691904Y-123912380D01*
X138072857Y-123912380D01*
X138168095Y-123960000D01*
X138215714Y-124007619D01*
X138263333Y-124102857D01*
X138263333Y-124245714D01*
X138215714Y-124340952D01*
X138168095Y-124388571D01*
X138072857Y-124436190D01*
X137691904Y-124436190D01*
X139215714Y-124912380D02*
X138644285Y-124912380D01*
X138930000Y-124912380D02*
X138930000Y-123912380D01*
X138834761Y-124055238D01*
X138739523Y-124150476D01*
X138644285Y-124198095D01*
%TO.C,C1*%
X133127142Y-108751666D02*
X133174761Y-108799285D01*
X133222380Y-108942142D01*
X133222380Y-109037380D01*
X133174761Y-109180238D01*
X133079523Y-109275476D01*
X132984285Y-109323095D01*
X132793809Y-109370714D01*
X132650952Y-109370714D01*
X132460476Y-109323095D01*
X132365238Y-109275476D01*
X132270000Y-109180238D01*
X132222380Y-109037380D01*
X132222380Y-108942142D01*
X132270000Y-108799285D01*
X132317619Y-108751666D01*
X133222380Y-107799285D02*
X133222380Y-108370714D01*
X133222380Y-108085000D02*
X132222380Y-108085000D01*
X132365238Y-108180238D01*
X132460476Y-108275476D01*
X132508095Y-108370714D01*
%TO.C,C2*%
X38457142Y-119546666D02*
X38504761Y-119594285D01*
X38552380Y-119737142D01*
X38552380Y-119832380D01*
X38504761Y-119975238D01*
X38409523Y-120070476D01*
X38314285Y-120118095D01*
X38123809Y-120165714D01*
X37980952Y-120165714D01*
X37790476Y-120118095D01*
X37695238Y-120070476D01*
X37600000Y-119975238D01*
X37552380Y-119832380D01*
X37552380Y-119737142D01*
X37600000Y-119594285D01*
X37647619Y-119546666D01*
X37647619Y-119165714D02*
X37600000Y-119118095D01*
X37552380Y-119022857D01*
X37552380Y-118784761D01*
X37600000Y-118689523D01*
X37647619Y-118641904D01*
X37742857Y-118594285D01*
X37838095Y-118594285D01*
X37980952Y-118641904D01*
X38552380Y-119213333D01*
X38552380Y-118594285D01*
%TO.C,D15*%
X54030714Y-119832380D02*
X54030714Y-118832380D01*
X54268809Y-118832380D01*
X54411666Y-118880000D01*
X54506904Y-118975238D01*
X54554523Y-119070476D01*
X54602142Y-119260952D01*
X54602142Y-119403809D01*
X54554523Y-119594285D01*
X54506904Y-119689523D01*
X54411666Y-119784761D01*
X54268809Y-119832380D01*
X54030714Y-119832380D01*
X55554523Y-119832380D02*
X54983095Y-119832380D01*
X55268809Y-119832380D02*
X55268809Y-118832380D01*
X55173571Y-118975238D01*
X55078333Y-119070476D01*
X54983095Y-119118095D01*
X56459285Y-118832380D02*
X55983095Y-118832380D01*
X55935476Y-119308571D01*
X55983095Y-119260952D01*
X56078333Y-119213333D01*
X56316428Y-119213333D01*
X56411666Y-119260952D01*
X56459285Y-119308571D01*
X56506904Y-119403809D01*
X56506904Y-119641904D01*
X56459285Y-119737142D01*
X56411666Y-119784761D01*
X56316428Y-119832380D01*
X56078333Y-119832380D01*
X55983095Y-119784761D01*
X55935476Y-119737142D01*
D11*
%TO.C,D5*%
X130475000Y-117221000D02*
X130475000Y-114300000D01*
X130475000Y-114300000D02*
X125649000Y-114300000D01*
X126665000Y-117221000D02*
X130475000Y-117221000D01*
X126520000Y-117094000D02*
G75*
G03*
X126520000Y-117094000I-4300000J0D01*
G01*
%TO.C,R3*%
X145775000Y-109312064D02*
X145775000Y-107857936D01*
X147595000Y-109312064D02*
X147595000Y-107857936D01*
%TO.C,R2*%
X142844436Y-121518000D02*
X144298564Y-121518000D01*
X142844436Y-123338000D02*
X144298564Y-123338000D01*
%TO.C,D1*%
X77170000Y-117221000D02*
X80980000Y-117221000D01*
X80980000Y-114300000D02*
X76154000Y-114300000D01*
X80980000Y-117221000D02*
X80980000Y-114300000D01*
X77025000Y-117094000D02*
G75*
G03*
X77025000Y-117094000I-4300000J0D01*
G01*
%TO.C,IC1*%
X143784000Y-108712000D02*
X143784000Y-110662000D01*
X138664000Y-108712000D02*
X138664000Y-106762000D01*
X138664000Y-108712000D02*
X138664000Y-112162000D01*
X143784000Y-108712000D02*
X143784000Y-106762000D01*
%TO.C,Q2*%
X145324000Y-118110000D02*
X145324000Y-118760000D01*
X142204000Y-118110000D02*
X142204000Y-117460000D01*
X145324000Y-118110000D02*
X145324000Y-116435000D01*
X142204000Y-118110000D02*
X142204000Y-118760000D01*
%TO.C,D14*%
X42955000Y-118490000D02*
X48355000Y-118490000D01*
X42955000Y-115190000D02*
X42955000Y-118490000D01*
X42955000Y-115190000D02*
X48355000Y-115190000D01*
%TO.C,D8*%
X112176000Y-108267000D02*
X115986000Y-108267000D01*
X115986000Y-108267000D02*
X115986000Y-105346000D01*
X115986000Y-105346000D02*
X111160000Y-105346000D01*
X112031000Y-108140000D02*
G75*
G03*
X112031000Y-108140000I-4300000J0D01*
G01*
%TO.C,J2*%
X166405000Y-121910000D02*
X166405000Y-114230000D01*
X165075000Y-124510000D02*
X163745000Y-124510000D01*
X166405000Y-114230000D02*
X163745000Y-114230000D01*
X166405000Y-121910000D02*
X163745000Y-121910000D01*
X163745000Y-121910000D02*
X163745000Y-114230000D01*
X163745000Y-124510000D02*
X163745000Y-123180000D01*
%TO.C,C3*%
X158191252Y-124100000D02*
X156768748Y-124100000D01*
X158191252Y-122280000D02*
X156768748Y-122280000D01*
%TO.C,D12*%
X161671000Y-108267000D02*
X165481000Y-108267000D01*
X165481000Y-105346000D02*
X160655000Y-105346000D01*
X165481000Y-108267000D02*
X165481000Y-105346000D01*
X161526000Y-108140000D02*
G75*
G03*
X161526000Y-108140000I-4300000J0D01*
G01*
%TO.C,D7*%
X42176000Y-108267000D02*
X45986000Y-108267000D01*
X45986000Y-105346000D02*
X41160000Y-105346000D01*
X45986000Y-108267000D02*
X45986000Y-105346000D01*
X42031000Y-108140000D02*
G75*
G03*
X42031000Y-108140000I-4300000J0D01*
G01*
%TO.C,J1*%
X29785000Y-121910000D02*
X29785000Y-114230000D01*
X32445000Y-121910000D02*
X29785000Y-121910000D01*
X29785000Y-124510000D02*
X29785000Y-123180000D01*
X32445000Y-121910000D02*
X32445000Y-114230000D01*
X31115000Y-124510000D02*
X29785000Y-124510000D01*
X32445000Y-114230000D02*
X29785000Y-114230000D01*
%TO.C,Q1*%
X139990000Y-118110000D02*
X139990000Y-118760000D01*
X136870000Y-118110000D02*
X136870000Y-117460000D01*
X136870000Y-118110000D02*
X136870000Y-118760000D01*
X139990000Y-118110000D02*
X139990000Y-116435000D01*
%TO.C,R1*%
X139157064Y-123338000D02*
X137702936Y-123338000D01*
X139157064Y-121518000D02*
X137702936Y-121518000D01*
%TO.C,C1*%
X135530000Y-109296252D02*
X135530000Y-107873748D01*
X133710000Y-109296252D02*
X133710000Y-107873748D01*
%TO.C,C2*%
X37105000Y-120091252D02*
X37105000Y-118668748D01*
X35285000Y-120091252D02*
X35285000Y-118668748D01*
%TO.C,D15*%
X58645000Y-115190000D02*
X53245000Y-115190000D01*
X58645000Y-118490000D02*
X58645000Y-115190000D01*
X58645000Y-118490000D02*
X53245000Y-118490000D01*
%TD*%
M02*
